<svg viewBox="0 0 43 43" fill="none" xmlns="http://www.w3.org/2000/svg">
<rect width="43" height="43" rx="21.5" fill="#181818"/>
<path d="M28.665 25.2788V27.2788C28.6657 27.4644 28.6277 27.6482 28.5533 27.8183C28.479 27.9884 28.3699 28.1412 28.233 28.2667C28.0962 28.3922 27.9347 28.4878 27.7588 28.5472C27.5829 28.6067 27.3966 28.6288 27.2117 28.6121C25.1602 28.3892 23.1897 27.6882 21.4583 26.5654C19.8475 25.5419 18.4819 24.1762 17.4583 22.5654C16.3316 20.8262 15.6305 18.8461 15.4117 16.7854C15.395 16.6011 15.4169 16.4153 15.476 16.2398C15.5351 16.0644 15.63 15.9032 15.7548 15.7665C15.8796 15.6298 16.0315 15.5206 16.2009 15.4458C16.3702 15.371 16.5532 15.3323 16.7383 15.3321H18.7383C19.0619 15.3289 19.3755 15.4435 19.6208 15.6545C19.8661 15.8654 20.0264 16.1584 20.0717 16.4788C20.1561 17.1188 20.3126 17.7472 20.5383 18.3521C20.628 18.5907 20.6474 18.85 20.5943 19.0993C20.5411 19.3487 20.4176 19.5775 20.2383 19.7588L19.3917 20.6054C20.3407 22.2745 21.7226 23.6564 23.3917 24.6054L24.2383 23.7588C24.4196 23.5795 24.6484 23.456 24.8977 23.4028C25.1471 23.3497 25.4064 23.3691 25.645 23.4588C26.2498 23.6845 26.8783 23.841 27.5183 23.9254C27.8422 23.9711 28.1379 24.1342 28.3493 24.3838C28.5608 24.6333 28.6731 24.9518 28.665 25.2788Z" fill="white"/>
</svg>
