<svg width="12" height="12" viewBox="0 0 12 12" fill="none" xmlns="http://www.w3.org/2000/svg">
<g id="Icon / Social / WhatsApp">
<path id="Vector" d="M1.2031 10.7997L1.85206 8.41506C1.42444 7.68203 1.19978 6.84834 1.20118 5.9997C1.20118 3.34867 3.35014 1.19971 6.00118 1.19971C8.65221 1.19971 10.8012 3.34867 10.8012 5.9997C10.8012 8.65074 8.65221 10.7997 6.00118 10.7997C5.15291 10.8011 4.31957 10.5766 3.58678 10.1493L1.2031 10.7997ZM4.26886 3.74755C4.20687 3.75139 4.1463 3.76772 4.09078 3.79555C4.03871 3.82503 3.99117 3.86189 3.94966 3.90499C3.89206 3.95923 3.85942 4.00627 3.82438 4.05187C3.64697 4.28274 3.55155 4.56615 3.55318 4.8573C3.55414 5.0925 3.61558 5.32146 3.71158 5.53554C3.9079 5.9685 4.23094 6.4269 4.65766 6.8517C4.76038 6.95394 4.8607 7.05666 4.9687 7.15218C5.49832 7.61849 6.12946 7.95476 6.81189 8.13426L7.08501 8.17602C7.17381 8.18082 7.26261 8.1741 7.35189 8.16978C7.49169 8.16257 7.62819 8.12471 7.75173 8.0589C7.83141 8.01666 7.86885 7.99554 7.93557 7.9533C7.93557 7.9533 7.95621 7.93986 7.99557 7.9101C8.06037 7.8621 8.10021 7.82802 8.15397 7.77186C8.19381 7.73058 8.22837 7.6821 8.25477 7.6269C8.29221 7.54866 8.32965 7.39938 8.34501 7.27506C8.35653 7.18002 8.35317 7.12818 8.35173 7.09602C8.34981 7.04466 8.30709 6.99138 8.26053 6.96882L7.98117 6.84354C7.98117 6.84354 7.56357 6.66162 7.30869 6.54546C7.28182 6.53375 7.25302 6.52708 7.22373 6.52578C7.19089 6.52241 7.15771 6.52611 7.12641 6.53662C7.09512 6.54713 7.06644 6.56423 7.04229 6.58674V6.58578C7.03989 6.58578 7.00773 6.61314 6.66069 7.03362C6.64078 7.06039 6.61334 7.08062 6.58188 7.09173C6.55042 7.10284 6.51637 7.10434 6.48405 7.09602C6.45278 7.08766 6.42214 7.07707 6.39237 7.06434C6.33285 7.03938 6.31221 7.02978 6.27141 7.01202L6.26901 7.01106C5.99441 6.89117 5.74016 6.72923 5.51542 6.53106C5.45494 6.47826 5.39878 6.42066 5.34118 6.36498C5.15233 6.18414 4.98776 5.97955 4.85158 5.75634L4.82326 5.71074C4.80291 5.6801 4.78647 5.64705 4.7743 5.61234C4.75606 5.54178 4.80358 5.48514 4.80358 5.48514C4.80358 5.48514 4.92022 5.35746 4.97446 5.28834C5.01962 5.2309 5.06176 5.17114 5.1007 5.1093C5.15734 5.0181 5.1751 4.9245 5.14534 4.85202C5.01094 4.52371 4.87174 4.19683 4.7287 3.87235C4.70038 3.80803 4.61638 3.76195 4.54006 3.75283C4.51414 3.74995 4.48822 3.74707 4.4623 3.74515C4.39784 3.74194 4.33324 3.74258 4.26886 3.74707V3.74755Z" fill="#181818"/>
</g>
</svg>
